<svg version="1.2" xmlns="http://www.w3.org/2000/svg" viewBox="0 0 448 512" width="448" height="512">
	<title>angle-double-right-svg</title>
	<style>
		.s0 { fill: #ffffff } 
	</style>
	<path id="Layer" fill-rule="evenodd" class="s0" d="m224.3 273l-136 136c-9.4 9.4-24.6 9.4-33.9 0l-22.6-22.6c-9.4-9.4-9.4-24.6 0-33.9l96.4-96.4-96.4-96.4c-9.4-9.4-9.4-24.6 0-33.9l22.5-22.8c9.4-9.4 24.6-9.4 33.9 0l136 136c9.5 9.4 9.5 24.6 0.1 34zm192-0.2l-136 136c-9.3 9.4-24.5 9.4-33.9 0l-22.6-22.6c-9.4-9.3-9.4-24.5 0-33.9l96.4-96.4-96.4-96.4c-9.4-9.3-9.4-24.5 0-33.9l22.6-22.6c9.3-9.4 24.5-9.4 33.9 0l136 136c9.4 9.4 9.4 24.6 0 33.8z"/>
</svg>